<svg xmlns="http://www.w3.org/2000/svg" viewBox="0 0 120 120">
<g fill="#FFFFFF" transform="translate(8.00,31.09) scale(0.08087,-0.08087) translate(-33,-710)">
<path d="M528 480Q509 515 473.5 533.5Q438 552 390 552Q307 552 257 497.5Q207 443 207 352Q207 255 259.5 200.5Q312 146 404 146Q467 146 510.5 178Q554 210 574 270H357V396H729V237Q710 173 664.5 118Q619 63 549 29Q479 -5 391 -5Q287 -5 205.5 40.5Q124 86 78.5 167Q33 248 33 352Q33 456 78.5 537.5Q124 619 205 664.5Q286 710 390 710Q516 710 602.5 649Q689 588 717 480Z"/>
<g transform="translate(722,0)"><path d="M339 252H233V0H62V702H339Q423 702 481 673Q539 644 568 593Q597 542 597 476Q597 415 569 364.5Q541 314 483 283Q425 252 339 252ZM423 476Q423 518 399 541Q375 564 326 564H233V388H326Q375 388 399 411Q423 434 423 476Z"/></g>
</g>
</svg>